<svg xmlns="http://www.w3.org/2000/svg" viewBox="0 0 398.93 379.5"><defs><style>.cls-1{isolation:isolate;}.cls-2,.cls-9{mix-blend-mode:multiply;}.cls-10,.cls-3,.cls-4,.cls-6,.cls-7,.cls-9{fill:none;stroke-linejoin:round;}.cls-3,.cls-4{stroke:#f37188;}.cls-3,.cls-4,.cls-6,.cls-7{stroke-width:14px;}.cls-10,.cls-4,.cls-7{stroke-linecap:round;}.cls-5{fill:#f37188;}.cls-6,.cls-7{stroke:#ffcb00;}.cls-8{fill:#ffcb00;}.cls-10,.cls-9{stroke:#6bd3e6;stroke-width:11px;}.cls-11{fill:#6bd3e6;}</style></defs><g class="cls-1"><g id="Warstwa_2" data-name="Warstwa 2"><g id="Objects"><g class="cls-2"><path class="cls-3" d="M354,219.11h0a122.9,122.9,0,1,0-41.1,26.12L364.77,272Z"/><path class="cls-4" d="M197.63,147.17a75.77,75.77,0,0,0,142.2,0"/><path class="cls-5" d="M250.07,99.78a9.43,9.43,0,1,1-9.43-9.43A9.43,9.43,0,0,1,250.07,99.78Z"/><path class="cls-5" d="M306.26,99.78a9.44,9.44,0,1,1-9.44-9.43A9.44,9.44,0,0,1,306.26,99.78Z"/></g><g class="cls-2"><path class="cls-6" d="M38.14,318.9h0a101,101,0,1,1,33.76,21.45l-42.6,22Z"/><path class="cls-7" d="M166.6,259.81a62.23,62.23,0,0,1-116.8,0"/><path class="cls-8" d="M123.53,220.88a7.75,7.75,0,1,0,7.75-7.74A7.75,7.75,0,0,0,123.53,220.88Z"/><path class="cls-8" d="M77.38,220.88a7.75,7.75,0,1,0,7.74-7.74A7.74,7.74,0,0,0,77.38,220.88Z"/></g><g class="cls-2"><path class="cls-9" d="M297.54,344a65.8,65.8,0,1,0-20.62,18.67C286.13,366.42,307,374,307,374Z"/><path class="cls-10" d="M207.14,313.66a39.35,39.35,0,0,0,73.86,0"/><path class="cls-11" d="M234.37,289.05a4.9,4.9,0,1,1-4.89-4.9A4.9,4.9,0,0,1,234.37,289.05Z"/><path class="cls-11" d="M263.56,289.05a4.9,4.9,0,1,1-4.9-4.9A4.9,4.9,0,0,1,263.56,289.05Z"/></g></g></g></g></svg>